<mxfile host="app.diagrams.net" modified="2024-03-14T07:13:59.983Z" agent="Mozilla/5.0 (Windows NT 10.0; Win64; x64) AppleWebKit/537.36 (KHTML, like Gecko) Chrome/122.0.0.0 Safari/537.36" etag="ZALIaN79wtih9-4Fnl1Z" version="23.0.2" type="device">
  <diagram name="페이지-1" id="fBKNxrdLaU5sX-TwB2c1">
    <mxGraphModel dx="2022" dy="1784" grid="1" gridSize="10" guides="1" tooltips="1" connect="1" arrows="1" fold="1" page="1" pageScale="1" pageWidth="827" pageHeight="1169" math="0" shadow="0">
      <root>
        <mxCell id="0" />
        <mxCell id="1" parent="0" />
        <mxCell id="Pqggc2ab75zkXs4qhfN--18" style="rounded=0;orthogonalLoop=1;jettySize=auto;html=1;entryX=0.5;entryY=0;entryDx=0;entryDy=0;" edge="1" parent="1" source="Pqggc2ab75zkXs4qhfN--1" target="Pqggc2ab75zkXs4qhfN--6">
          <mxGeometry relative="1" as="geometry" />
        </mxCell>
        <mxCell id="Pqggc2ab75zkXs4qhfN--19" style="rounded=0;orthogonalLoop=1;jettySize=auto;html=1;entryX=0.5;entryY=0;entryDx=0;entryDy=0;" edge="1" parent="1" source="Pqggc2ab75zkXs4qhfN--1" target="Pqggc2ab75zkXs4qhfN--15">
          <mxGeometry relative="1" as="geometry" />
        </mxCell>
        <mxCell id="Pqggc2ab75zkXs4qhfN--20" style="rounded=0;orthogonalLoop=1;jettySize=auto;html=1;" edge="1" parent="1" source="Pqggc2ab75zkXs4qhfN--1" target="Pqggc2ab75zkXs4qhfN--16">
          <mxGeometry relative="1" as="geometry" />
        </mxCell>
        <mxCell id="Pqggc2ab75zkXs4qhfN--33" style="rounded=0;orthogonalLoop=1;jettySize=auto;html=1;" edge="1" parent="1" source="Pqggc2ab75zkXs4qhfN--1" target="Pqggc2ab75zkXs4qhfN--32">
          <mxGeometry relative="1" as="geometry" />
        </mxCell>
        <mxCell id="Pqggc2ab75zkXs4qhfN--1" value="주소록" style="whiteSpace=wrap;html=1;align=center;" vertex="1" parent="1">
          <mxGeometry x="72" y="190" width="100" height="40" as="geometry" />
        </mxCell>
        <mxCell id="Pqggc2ab75zkXs4qhfN--26" style="rounded=0;orthogonalLoop=1;jettySize=auto;html=1;" edge="1" parent="1" source="Pqggc2ab75zkXs4qhfN--2" target="Pqggc2ab75zkXs4qhfN--22">
          <mxGeometry relative="1" as="geometry" />
        </mxCell>
        <mxCell id="Pqggc2ab75zkXs4qhfN--35" style="rounded=0;orthogonalLoop=1;jettySize=auto;html=1;" edge="1" parent="1" source="Pqggc2ab75zkXs4qhfN--2" target="Pqggc2ab75zkXs4qhfN--34">
          <mxGeometry relative="1" as="geometry" />
        </mxCell>
        <mxCell id="Pqggc2ab75zkXs4qhfN--2" value="취미" style="whiteSpace=wrap;html=1;align=center;" vertex="1" parent="1">
          <mxGeometry x="520" y="190" width="100" height="40" as="geometry" />
        </mxCell>
        <mxCell id="Pqggc2ab75zkXs4qhfN--3" value="주소취미" style="shape=rhombus;perimeter=rhombusPerimeter;whiteSpace=wrap;html=1;align=center;" vertex="1" parent="1">
          <mxGeometry x="270" y="70" width="120" height="60" as="geometry" />
        </mxCell>
        <mxCell id="Pqggc2ab75zkXs4qhfN--6" value="이름" style="ellipse;whiteSpace=wrap;html=1;align=center;" vertex="1" parent="1">
          <mxGeometry x="-28" y="370" width="100" height="40" as="geometry" />
        </mxCell>
        <mxCell id="Pqggc2ab75zkXs4qhfN--15" value="전화번호" style="ellipse;whiteSpace=wrap;html=1;align=center;" vertex="1" parent="1">
          <mxGeometry x="92" y="370" width="100" height="40" as="geometry" />
        </mxCell>
        <mxCell id="Pqggc2ab75zkXs4qhfN--16" value="주소" style="ellipse;whiteSpace=wrap;html=1;align=center;" vertex="1" parent="1">
          <mxGeometry x="210" y="370" width="100" height="40" as="geometry" />
        </mxCell>
        <mxCell id="Pqggc2ab75zkXs4qhfN--22" value="취미명" style="ellipse;whiteSpace=wrap;html=1;align=center;" vertex="1" parent="1">
          <mxGeometry x="610" y="370" width="100" height="40" as="geometry" />
        </mxCell>
        <mxCell id="Pqggc2ab75zkXs4qhfN--32" value="코드" style="ellipse;whiteSpace=wrap;html=1;align=center;fontStyle=4;" vertex="1" parent="1">
          <mxGeometry x="-140" y="370" width="100" height="40" as="geometry" />
        </mxCell>
        <mxCell id="Pqggc2ab75zkXs4qhfN--34" value="취미코드" style="ellipse;whiteSpace=wrap;html=1;align=center;fontStyle=4;" vertex="1" parent="1">
          <mxGeometry x="400" y="370" width="100" height="40" as="geometry" />
        </mxCell>
        <mxCell id="Pqggc2ab75zkXs4qhfN--40" value="" style="fontSize=12;html=1;endArrow=ERzeroToMany;startArrow=ERzeroToOne;rounded=0;exitX=1;exitY=0.5;exitDx=0;exitDy=0;entryX=0;entryY=1;entryDx=0;entryDy=0;" edge="1" parent="1" source="Pqggc2ab75zkXs4qhfN--1" target="Pqggc2ab75zkXs4qhfN--3">
          <mxGeometry width="100" height="100" relative="1" as="geometry">
            <mxPoint x="210" y="300" as="sourcePoint" />
            <mxPoint x="260" y="280" as="targetPoint" />
          </mxGeometry>
        </mxCell>
        <mxCell id="Pqggc2ab75zkXs4qhfN--41" value="" style="fontSize=12;html=1;endArrow=ERzeroToMany;startArrow=ERzeroToOne;rounded=0;exitX=0;exitY=0.5;exitDx=0;exitDy=0;entryX=1;entryY=1;entryDx=0;entryDy=0;" edge="1" parent="1" source="Pqggc2ab75zkXs4qhfN--2" target="Pqggc2ab75zkXs4qhfN--3">
          <mxGeometry width="100" height="100" relative="1" as="geometry">
            <mxPoint x="340" y="300" as="sourcePoint" />
            <mxPoint x="420" y="280" as="targetPoint" />
          </mxGeometry>
        </mxCell>
        <mxCell id="Pqggc2ab75zkXs4qhfN--43" value="주소 취미 개념적 모델링" style="text;strokeColor=none;fillColor=none;html=1;fontSize=24;fontStyle=1;verticalAlign=middle;align=center;" vertex="1" parent="1">
          <mxGeometry x="280" y="-20" width="100" height="40" as="geometry" />
        </mxCell>
        <mxCell id="Pqggc2ab75zkXs4qhfN--46" value="&lt;font style=&quot;font-size: 15px;&quot;&gt;0..1&lt;/font&gt;" style="text;strokeColor=none;fillColor=none;html=1;fontSize=24;fontStyle=1;verticalAlign=middle;align=center;" vertex="1" parent="1">
          <mxGeometry x="140" y="200" width="100" height="40" as="geometry" />
        </mxCell>
        <mxCell id="Pqggc2ab75zkXs4qhfN--48" value="&lt;font style=&quot;font-size: 15px;&quot;&gt;0..1&lt;/font&gt;" style="text;strokeColor=none;fillColor=none;html=1;fontSize=24;fontStyle=1;verticalAlign=middle;align=center;" vertex="1" parent="1">
          <mxGeometry x="440" y="200" width="100" height="40" as="geometry" />
        </mxCell>
        <mxCell id="Pqggc2ab75zkXs4qhfN--49" value="&lt;span style=&quot;font-size: 15px;&quot;&gt;N&lt;/span&gt;" style="text;strokeColor=none;fillColor=none;html=1;fontSize=24;fontStyle=1;verticalAlign=middle;align=center;" vertex="1" parent="1">
          <mxGeometry x="210" y="90" width="100" height="40" as="geometry" />
        </mxCell>
        <mxCell id="Pqggc2ab75zkXs4qhfN--50" value="&lt;span style=&quot;font-size: 15px;&quot;&gt;M&lt;/span&gt;" style="text;strokeColor=none;fillColor=none;html=1;fontSize=24;fontStyle=1;verticalAlign=middle;align=center;" vertex="1" parent="1">
          <mxGeometry x="350" y="90" width="100" height="40" as="geometry" />
        </mxCell>
      </root>
    </mxGraphModel>
  </diagram>
</mxfile>
